<svg width="986" height="309" viewBox="0 0 986 309" fill="none" xmlns="http://www.w3.org/2000/svg">
<path d="M435.107 86.3362C436.946 85.9578 445.822 85.9458 448.069 86.159C464.921 87.7618 474.447 93.0143 485.331 105.684C485.205 99.9124 485.225 94.0279 485.186 88.2455C496.139 87.7146 511.319 88.0636 522.315 88.1589C522.729 115.151 522.243 142.675 522.397 169.749C522.214 189.84 523.365 209.478 520.543 229.414C511.29 294.794 425.096 294.403 381.899 264.405C383.876 260.354 386.257 256.007 388.357 251.978C391.57 246.47 394.633 240.223 397.86 234.527C400.71 236.553 404.009 238.988 407.129 240.772C425.527 251.29 456.366 256.874 473.475 241.29C483.477 232.181 483.968 216.137 484.04 203.522C475.359 212.515 469.911 217.832 457.031 220.674C437.76 224.926 416.438 221.319 400.681 209.267C386.844 198.613 377.811 182.897 375.573 165.58C370.111 124.099 393.267 91.7802 435.107 86.3362ZM456.159 188.574C475.196 184.596 487.357 165.889 483.265 146.881C479.17 127.874 460.385 115.828 441.397 120.035C422.57 124.206 410.645 142.793 414.704 161.639C418.763 180.486 437.283 192.519 456.159 188.574Z" fill="#f4f4f5"/>
<path d="M280.219 84.7195C320.907 80.1495 357.61 109.386 362.241 150.056C366.872 190.726 337.681 227.462 297.006 232.152C256.247 236.851 219.407 207.594 214.767 166.839C210.126 126.085 239.445 89.2987 280.219 84.7195ZM292.829 196.818C302.554 195.248 310.065 191.479 315.862 183.291C327.715 166.552 325.536 137.912 307.932 125.801C299.682 120.125 292.939 119.487 283.517 120.041C273.726 122.181 265.146 126.298 259.939 135.22C244.336 161.956 258.012 199.632 292.829 196.818Z" fill="#f4f4f5"/>
<path d="M748.575 44.7826C753.038 44.2217 788.179 44.3253 792.565 45.2204C794.322 46.6822 863.087 212.18 869.688 228.531L825.679 228.558C820.205 216.575 813.397 199.627 808.857 187.47C796.412 187.59 783.966 187.637 771.521 187.611C773.403 175.512 777.472 158.579 783.249 147.697C791.337 142.409 813.753 137.278 823.618 134.79C813.811 131.883 790.644 128.603 782.96 121.03C780.235 118.345 776.822 105.705 775.541 101.176C773.789 95.8063 771.964 86.7798 770.645 80.9983C759.186 128.576 765.354 123.031 717.878 134.762C727.628 137.928 747.921 141.156 756.259 146.823C763.052 151.438 768.69 179.173 769.87 187.624L732.11 187.652C731.171 191.221 728.196 198.355 726.727 202.013C723.145 210.784 719.621 219.581 716.169 228.403C712.043 228.727 704.995 228.517 700.7 228.527L671.746 228.611C677.793 215.274 683.869 199.54 689.617 185.792L724.662 101.712C732.432 82.9861 740.371 63.2987 748.575 44.7826Z" fill="#3b82f6"/>
<path d="M185.554 44.89L227.754 44.854L211.414 84.3985L170.945 182.25C165.045 196.501 158.113 214.643 151.71 228.361C138.892 228.759 124.042 228.411 110.994 228.51C104.322 212.357 34.8353 46.5376 34.9991 44.9321L79.5391 44.9656L113.851 129.379C119.369 143.062 126.425 161.958 132.651 174.902C146.969 137.785 163.04 101.11 177.638 64.0815C180.161 57.684 182.844 51.2104 185.554 44.89Z" fill="#f4f4f5"/>
<path d="M557.567 54.448C559.829 54.6424 562.174 54.7291 564.442 54.667C574.73 54.3869 585.312 55.1618 595.558 54.5L595.61 91.0077L629.273 91.0318C629.832 101.11 629.586 112.468 629.562 122.659L595.524 122.692L595.596 160.991C595.572 176.728 592.183 199.763 615.744 198.097C620.983 197.726 624.642 195.822 629.008 193.143C631.834 199.705 634.795 208.247 637.434 215.092C638.526 217.664 639.075 219.363 639.87 222.051C629.697 228.264 619.283 230.834 607.387 230.889C594.238 230.951 579.424 227.624 569.863 218.083C554.018 202.266 556.228 180.172 556.257 159.737L556.276 122.591L535.902 122.659C536.075 112.254 535.926 101.439 535.921 91.0019L556.243 91.0635C556.233 83.2413 555.915 64.0145 556.666 55.3514C557.018 55.0001 557.316 54.6988 557.567 54.448Z" fill="#f4f4f5"/>
<path d="M909.118 44.5117C912.719 44.4797 921.52 44.3483 924.674 45.0868C925.993 47.8504 925.439 138.15 925.439 148.494L925.391 200.257C925.376 209.498 925.627 219.405 925.242 228.54C916.84 228.766 907.457 228.551 898.979 228.544L884.198 228.588L884.208 102.667C884.203 83.766 883.852 63.6468 884.377 44.8267C892.624 44.8679 900.871 44.7629 909.118 44.5117Z" fill="#3b82f6"/>
</svg>
